<svg width="16" height="14" viewBox="0 0 16 14" fill="none" xmlns="http://www.w3.org/2000/svg">
<g id="Hide">
<path id="Stroke 1" d="M6.0633 8.38939C5.56599 7.94803 5.26328 7.34827 5.26328 6.67547C5.26328 5.32756 6.4845 4.24108 7.99979 4.24108C8.74965 4.24108 9.43984 4.51097 9.9285 4.95233" stroke="#808194" stroke-width="0.666667" stroke-linecap="round" stroke-linejoin="round"/>
<path id="Stroke 3" d="M10.6854 7.10688C10.4848 8.09879 9.60604 8.88155 8.4912 9.06147" stroke="#808194" stroke-width="0.666667" stroke-linecap="round" stroke-linejoin="round"/>
<path id="Stroke 5" d="M3.37694 10.7772C2.00436 9.81917 0.841947 8.41974 -0.000457764 6.67506C0.850596 4.9227 2.02079 3.51558 3.40203 2.54982C4.77461 1.58406 6.35823 1.05966 7.99979 1.05966C9.65087 1.05966 11.2336 1.59175 12.6149 2.56443" stroke="#808194" stroke-width="0.666667" stroke-linecap="round" stroke-linejoin="round"/>
<path id="Stroke 7" d="M14.4415 4.25567C15.0366 4.95846 15.5598 5.76967 16 6.67469C14.2988 10.1786 11.2924 12.2893 7.9998 12.2893C7.2534 12.2893 6.51737 12.1817 5.80989 11.9718" stroke="#808194" stroke-width="0.666667" stroke-linecap="round" stroke-linejoin="round"/>
<path id="Stroke 9" d="M14.8216 0.610085L1.17876 12.739" stroke="#808194" stroke-width="0.666667" stroke-linecap="round" stroke-linejoin="round"/>
</g>
</svg>
