<svg width="192" height="116" viewBox="0 0 192 116" fill="none" xmlns="http://www.w3.org/2000/svg">
<g id="XMLID 12">
<g id="XMLID 16">
<g id="XMLID 18">
<path id="XMLID 24" d="M1.15002 116.28C1.15002 179.891 52.7028 231.458 116.296 231.458C179.89 231.458 231.443 179.891 231.443 116.28C231.443 52.6684 179.89 1.1015 116.296 1.1015C52.7028 1.10149 1.15002 52.6684 1.15002 116.28Z" stroke="white" stroke-width="0.440719" stroke-miterlimit="10"/>
<path id="Vector" d="M9.45938 116.279C9.45937 175.3 57.292 223.146 116.297 223.146C175.301 223.146 223.134 175.3 223.134 116.279C223.134 57.2584 175.301 9.41253 116.297 9.41253C57.2921 9.41253 9.45938 57.2584 9.45938 116.279Z" stroke="white" stroke-width="0.430764" stroke-miterlimit="10"/>
<path id="Vector_2" d="M17.7796 116.28C17.7796 170.704 61.8869 214.824 116.296 214.824C170.705 214.824 214.813 170.704 214.813 116.28C214.813 61.8556 170.705 17.7361 116.296 17.7361C61.8869 17.7361 17.7796 61.8556 17.7796 116.28Z" stroke="white" stroke-width="0.420871" stroke-miterlimit="10"/>
<path id="Vector_3" d="M26.0997 116.279C26.0996 166.107 66.4817 206.5 116.295 206.5C166.109 206.5 206.491 166.107 206.491 116.279C206.491 66.4518 166.109 26.0587 116.295 26.0587C66.4817 26.0586 26.0997 66.4518 26.0997 116.279Z" stroke="white" stroke-width="0.410979" stroke-miterlimit="10"/>
<path id="Vector_4" d="M34.4219 116.28C34.4219 161.511 71.0786 198.178 116.297 198.178C161.515 198.178 198.172 161.511 198.172 116.28C198.172 71.0492 161.515 34.3824 116.297 34.3824C71.0787 34.3823 34.4219 71.0492 34.4219 116.28Z" stroke="white" stroke-width="0.401086" stroke-miterlimit="10"/>
<path id="Vector_5" d="M42.7421 116.28C42.7421 156.914 75.6735 189.854 116.296 189.854C156.919 189.854 189.851 156.914 189.851 116.28C189.851 75.6454 156.919 42.7049 116.296 42.7049C75.6735 42.7049 42.7421 75.6454 42.7421 116.28Z" stroke="white" stroke-width="0.391131" stroke-miterlimit="10"/>
<path id="Vector_6" d="M112.971 181.438C148.952 183.287 179.618 155.609 181.466 119.618C183.315 83.6279 155.645 52.953 119.664 51.1043C83.6835 49.2556 53.0172 76.9331 51.169 112.924C49.3207 148.914 76.9905 179.589 112.971 181.438Z" stroke="white" stroke-width="0.381238" stroke-miterlimit="10"/>
<path id="Vector_7" d="M114.171 173.205C145.581 174.374 171.992 149.853 173.161 118.434C174.33 87.0151 149.815 60.597 118.405 59.4274C86.9948 58.2578 60.5841 82.7796 59.4148 114.198C58.2455 145.617 82.7605 172.035 114.171 173.205Z" stroke="white" stroke-width="0.371346" stroke-miterlimit="10"/>
<path id="Vector_8" d="M114.961 164.865C141.787 165.585 164.117 144.415 164.836 117.582C165.555 90.7485 144.391 68.4126 117.565 67.6932C90.7394 66.9737 68.4096 88.1433 67.6904 114.977C66.9712 141.81 88.1348 164.146 114.961 164.865Z" stroke="white" stroke-width="0.361453" stroke-miterlimit="10"/>
<path id="Vector_9" d="M115.518 156.563C137.754 156.984 156.122 139.293 156.542 117.05C156.962 94.8073 139.277 76.435 117.04 76.0145C94.803 75.594 76.4358 93.2846 76.0154 115.528C75.5951 137.771 93.2808 156.143 115.518 156.563Z" stroke="white" stroke-width="0.351561" stroke-miterlimit="10"/>
<path id="Vector_10" d="M115.872 148.272C133.516 148.496 148.001 134.371 148.226 116.722C148.45 99.0727 134.328 84.5836 116.684 84.3594C99.0397 84.1353 84.5547 98.2609 84.3306 115.91C84.1065 133.559 98.2282 148.048 115.872 148.272Z" stroke="white" stroke-width="0.341606" stroke-miterlimit="10"/>
<path id="Vector_11" d="M116.145 139.924C129.196 140.023 139.856 129.522 139.955 116.468C140.055 103.413 129.556 92.7503 116.506 92.6507C103.455 92.5511 92.7951 103.053 92.6955 116.107C92.5959 129.161 103.095 139.824 116.145 139.924Z" stroke="white" stroke-width="0.331713" stroke-miterlimit="10"/>
<path id="Vector_12" d="M116.251 131.598C124.706 131.628 131.584 124.795 131.613 116.338C131.643 107.881 124.813 101.001 116.357 100.971C107.902 100.942 101.024 107.774 100.995 116.231C100.966 124.689 107.796 131.569 116.251 131.598Z" stroke="white" stroke-width="0.321821" stroke-miterlimit="10"/>
<path id="XMLID 23" d="M116.296 109.29C120.152 109.29 123.284 112.422 123.284 116.28C123.284 120.138 120.152 123.27 116.296 123.27C112.439 123.27 109.307 120.138 109.307 116.28C109.319 112.422 112.439 109.29 116.296 109.29Z" stroke="white" stroke-width="0.311928" stroke-miterlimit="10"/>
</g>
</g>
</g>
</svg>
