<svg width="96" height="169" viewBox="0 0 96 169" fill="none" xmlns="http://www.w3.org/2000/svg">
<g id="XMLID 27">
<g id="XMLID 38">
<g id="Group">
<g id="Group_2">
<g id="Group_3">
<g id="Group_4">
<path id="Vector" fill-rule="evenodd" clip-rule="evenodd" d="M78.1464 2.98607C77.3167 3.47703 76.2649 3.20817 75.7273 2.40159C75.2131 1.59501 75.4585 0.519578 76.2649 -0.00645244C77.0712 -0.532483 78.1698 -0.287025 78.7074 0.554624C79.2566 1.38458 78.9761 2.49511 78.1464 2.98607Z" fill="white"/>
</g>
</g>
<g id="Group_5">
<g id="Group_6">
<path id="Vector_2" fill-rule="evenodd" clip-rule="evenodd" d="M82.6323 11.274C81.7559 11.6948 80.6924 11.3441 80.26 10.4908C79.8276 9.63743 80.1665 8.58542 81.0196 8.12952C81.8727 7.67363 82.9362 8.0243 83.3919 8.9127C83.8477 9.78942 83.5088 10.8532 82.6323 11.274Z" fill="white"/>
</g>
</g>
<g id="Group_7">
<g id="Group_8">
<path id="Vector_3" fill-rule="evenodd" clip-rule="evenodd" d="M86.35 19.9246C85.4502 20.2636 84.4218 19.8194 84.0712 18.931C83.7206 18.0426 84.1647 17.0139 85.0528 16.6398C85.941 16.2657 86.9694 16.71 87.3317 17.6335C87.694 18.557 87.2616 19.5856 86.35 19.9246Z" fill="white"/>
</g>
</g>
<g id="Group_9">
<g id="Group_10">
<path id="Vector_4" fill-rule="evenodd" clip-rule="evenodd" d="M89.3066 28.8671C88.3717 29.1243 87.4017 28.5983 87.1446 27.6748C86.8992 26.7513 87.3784 25.7811 88.3016 25.4772C89.2131 25.1849 90.2415 25.6993 90.4986 26.6578C90.7791 27.628 90.2415 28.61 89.3066 28.8671Z" fill="white"/>
</g>
</g>
<g id="Group_11">
<g id="Group_12">
<path id="Vector_5" fill-rule="evenodd" clip-rule="evenodd" d="M91.4802 38.0434C90.5219 38.2188 89.6338 37.5992 89.4351 36.6641C89.2248 35.7289 89.8091 34.8055 90.7557 34.5834C91.7023 34.373 92.6489 34.9808 92.8709 35.951C93.0813 36.9213 92.4268 37.8564 91.4802 38.0434Z" fill="white"/>
</g>
</g>
<g id="Group_13">
<g id="Group_14">
<path id="Vector_6" fill-rule="evenodd" clip-rule="evenodd" d="M92.8709 47.3604C91.9126 47.4539 91.0244 46.7642 90.9076 45.8174C90.7907 44.8705 91.4685 43.9938 92.4268 43.8652C93.3851 43.7366 94.2615 44.4263 94.3901 45.4083C94.507 46.3902 93.8292 47.2669 92.8709 47.3604Z" fill="white"/>
</g>
</g>
<g id="Group_15">
<g id="Group_16">
<path id="Vector_7" fill-rule="evenodd" clip-rule="evenodd" d="M93.3854 56.7705C92.4154 56.7821 91.6091 56.0106 91.5857 55.0637C91.5623 54.1052 92.3336 53.2869 93.2919 53.2401C94.2619 53.1934 95.0682 53.9532 95.0916 54.9469C95.115 55.9405 94.3437 56.7588 93.3854 56.7705Z" fill="white"/>
</g>
</g>
<g id="Group_17">
<g id="Group_18">
<path id="Vector_8" fill-rule="evenodd" clip-rule="evenodd" d="M93.1063 66.1806C92.1363 66.1105 91.4117 65.2805 91.4935 64.322C91.5637 63.3634 92.335 62.6153 93.3167 62.6503C94.275 62.6854 95.0697 63.5153 94.9995 64.509C94.9177 65.5143 94.0763 66.2507 93.1063 66.1806Z" fill="white"/>
</g>
</g>
<g id="Group_19">
<g id="Group_20">
<path id="Vector_9" fill-rule="evenodd" clip-rule="evenodd" d="M92.0416 75.5429C91.0833 75.3909 90.464 74.5024 90.5691 73.5439C90.686 72.597 91.5742 71.919 92.5325 72.0359C93.4907 72.1528 94.1686 73.0529 94.04 74.0349C93.9348 75.0402 92.9999 75.6948 92.0416 75.5429Z" fill="white"/>
</g>
</g>
<g id="Group_21">
<g id="Group_22">
<path id="Vector_10" fill-rule="evenodd" clip-rule="evenodd" d="M90.1585 84.7785C89.2235 84.5447 88.6275 83.5861 88.8496 82.6627C89.0599 81.7275 90.0065 81.143 90.9531 81.3417C91.8997 81.5405 92.484 82.4873 92.262 83.4575C92.04 84.4278 91.0934 85.0122 90.1585 84.7785Z" fill="white"/>
</g>
</g>
<g id="Group_23">
<g id="Group_24">
<path id="Vector_11" fill-rule="evenodd" clip-rule="evenodd" d="M87.4496 93.8028C86.5381 93.4871 86.0473 92.4818 86.3511 91.5817C86.655 90.6699 87.66 90.1789 88.5832 90.4594C89.5064 90.74 89.9973 91.7336 89.6817 92.6805C89.3545 93.6157 88.3612 94.1184 87.4496 93.8028Z" fill="white"/>
</g>
</g>
<g id="Group_25">
<g id="Group_26">
<path id="Vector_12" fill-rule="evenodd" clip-rule="evenodd" d="M83.9661 102.559C83.0896 102.162 82.6923 101.133 83.0779 100.256C83.487 99.3914 84.4569 98.9472 85.3685 99.3213C86.2566 99.6837 86.7241 100.747 86.3034 101.648C85.8944 102.548 84.8426 102.957 83.9661 102.559Z" fill="white"/>
</g>
</g>
<g id="Group_27">
<g id="Group_28">
<path id="Vector_13" fill-rule="evenodd" clip-rule="evenodd" d="M79.736 110.974C78.8829 110.495 78.6141 109.455 79.0465 108.601C79.4789 107.748 80.5306 107.421 81.3954 107.865C82.2602 108.309 82.5874 109.385 82.1317 110.273C81.6876 111.15 80.5774 111.442 79.736 110.974Z" fill="white"/>
</g>
</g>
<g id="Group_29">
<g id="Group_30">
<path id="Vector_14" fill-rule="evenodd" clip-rule="evenodd" d="M74.8047 118.994C74.0101 118.457 73.788 117.358 74.3022 116.551C74.8164 115.745 75.9033 115.511 76.7213 116.025C77.5394 116.54 77.7731 117.639 77.2355 118.468C76.7096 119.322 75.6111 119.556 74.8047 118.994Z" fill="white"/>
</g>
</g>
<g id="Group_31">
<g id="Group_32">
<path id="Vector_15" fill-rule="evenodd" clip-rule="evenodd" d="M69.1703 126.545C68.4224 125.926 68.2938 124.827 68.8781 124.067C69.4742 123.319 70.5726 123.179 71.3439 123.763C72.1152 124.348 72.2438 125.458 71.6244 126.241C71.0284 127.025 69.9182 127.165 69.1703 126.545Z" fill="white"/>
</g>
</g>
<g id="Group_33">
<g id="Group_34">
<path id="Vector_16" fill-rule="evenodd" clip-rule="evenodd" d="M62.8958 133.582C62.2063 132.904 62.1712 131.794 62.8374 131.104C63.5035 130.414 64.6137 130.379 65.3383 131.034C66.0512 131.689 66.0862 132.799 65.3967 133.512C64.7072 134.225 63.5853 134.26 62.8958 133.582Z" fill="white"/>
</g>
</g>
<g id="Group_35">
<g id="Group_36">
<path id="Vector_17" fill-rule="evenodd" clip-rule="evenodd" d="M56.0459 140.047C55.4149 139.31 55.485 138.211 56.2096 137.58C56.9458 136.972 58.021 136.984 58.6871 137.697C59.3415 138.398 59.3182 139.556 58.5468 140.187C57.7989 140.841 56.677 140.783 56.0459 140.047Z" fill="white"/>
</g>
</g>
<g id="Group_37">
<g id="Group_38">
<path id="Vector_18" fill-rule="evenodd" clip-rule="evenodd" d="M48.6609 145.904C48.0999 145.121 48.2752 144.034 49.0465 143.473C49.7945 142.876 50.893 143.028 51.489 143.788C52.085 144.548 51.9331 145.67 51.1501 146.278C50.3437 146.863 49.2335 146.687 48.6609 145.904Z" fill="white"/>
</g>
</g>
<g id="Group_39">
<g id="Group_40">
<path id="Vector_19" fill-rule="evenodd" clip-rule="evenodd" d="M40.807 151.095C40.3161 150.265 40.5849 149.213 41.3913 148.675C42.1977 148.161 43.2728 148.406 43.7987 149.213C44.3246 150.019 44.0792 151.118 43.2378 151.656C42.408 152.217 41.2978 151.925 40.807 151.095Z" fill="white"/>
</g>
</g>
<g id="Group_41">
<g id="Group_42">
<path id="Vector_20" fill-rule="evenodd" clip-rule="evenodd" d="M32.5224 155.583C32.1017 154.707 32.4523 153.643 33.3054 153.21C34.1585 152.778 35.2103 153.117 35.666 153.97C36.1218 154.823 35.7712 155.887 34.8831 156.343C34.0066 156.799 32.9431 156.46 32.5224 155.583Z" fill="white"/>
</g>
</g>
<g id="Group_43">
<g id="Group_44">
<path id="Vector_21" fill-rule="evenodd" clip-rule="evenodd" d="M23.8753 159.3C23.5364 158.4 23.9805 157.371 24.8686 157.02C25.7568 156.67 26.7852 157.114 27.1592 158.002C27.5331 158.89 27.089 159.919 26.1658 160.282C25.2426 160.656 24.2142 160.211 23.8753 159.3Z" fill="white"/>
</g>
</g>
<g id="Group_45">
<g id="Group_46">
<path id="Vector_22" fill-rule="evenodd" clip-rule="evenodd" d="M14.9342 162.257C14.6771 161.322 15.2029 160.351 16.1262 160.094C17.0494 159.849 18.0193 160.328 18.3232 161.252C18.6153 162.163 18.1011 163.192 17.1429 163.449C16.1846 163.73 15.1913 163.192 14.9342 162.257Z" fill="white"/>
</g>
</g>
<g id="Group_47">
<g id="Group_48">
<path id="Vector_23" fill-rule="evenodd" clip-rule="evenodd" d="M5.77084 164.431C5.59555 163.473 6.21491 162.584 7.14983 162.386C8.08474 162.175 9.00796 162.76 9.23 163.707C9.44035 164.654 8.83265 165.6 7.86268 165.823C6.88102 166.033 5.94614 165.378 5.77084 164.431Z" fill="white"/>
</g>
</g>
<g id="Group_49">
<g id="Group_50">
<path id="Vector_24" fill-rule="evenodd" clip-rule="evenodd" d="M-3.55292 165.823C-3.64641 164.865 -2.95691 163.976 -2.01032 163.86C-1.06373 163.743 -0.187285 164.421 -0.0587359 165.379C0.0698129 166.338 -0.61965 167.215 -1.6013 167.343C-2.58294 167.46 -3.45943 166.782 -3.55292 165.823Z" fill="white"/>
</g>
</g>
</g>
</g>
</g>
<g id="Group_51">
<g id="Group_52">
<g id="Group_53">
<g id="Group_54">
<g id="Group_55">
<path id="Vector_25" fill-rule="evenodd" clip-rule="evenodd" d="M64.6702 -0.0181303C63.8873 0.554662 62.8121 0.391044 62.2161 -0.345403C61.6318 -1.09354 61.772 -2.1924 62.52 -2.78857C63.2796 -3.39643 64.3898 -3.25613 64.9975 -2.47293C65.6168 -1.7131 65.4532 -0.590923 64.6702 -0.0181303Z" fill="white"/>
</g>
</g>
<g id="Group_56">
<g id="Group_57">
<path id="Vector_26" fill-rule="evenodd" clip-rule="evenodd" d="M69.8609 7.77872C69.0429 8.26968 67.9677 8.01246 67.4418 7.21757C66.9276 6.42268 67.173 5.33555 67.9794 4.80952C68.7858 4.28349 69.8843 4.529 70.4102 5.35897C70.9712 6.18893 70.7024 7.27607 69.8609 7.77872Z" fill="white"/>
</g>
</g>
<g id="Group_58">
<g id="Group_59">
<path id="Vector_27" fill-rule="evenodd" clip-rule="evenodd" d="M74.3007 16.0318C73.4359 16.441 72.3842 16.0902 71.9518 15.2486C71.5194 14.4069 71.8699 13.3549 72.723 12.899C73.5761 12.4431 74.6396 12.7938 75.0954 13.6822C75.5394 14.5473 75.1772 15.611 74.3007 16.0318Z" fill="white"/>
</g>
</g>
<g id="Group_60">
<g id="Group_61">
<path id="Vector_28" fill-rule="evenodd" clip-rule="evenodd" d="M77.9245 24.671C77.0246 24.9983 75.9962 24.5541 75.6456 23.6657C75.295 22.7773 75.7391 21.772 76.639 21.3979C77.5388 21.0355 78.5556 21.4797 78.9178 22.4032C79.2918 23.3267 78.8477 24.332 77.9245 24.671Z" fill="white"/>
</g>
</g>
<g id="Group_62">
<g id="Group_63">
<path id="Vector_29" fill-rule="evenodd" clip-rule="evenodd" d="M80.7041 33.6127C79.7692 33.8582 78.7875 33.3088 78.5304 32.397C78.2733 31.4852 78.8109 30.5149 79.7458 30.2344C80.669 29.9538 81.639 30.5033 81.9194 31.4501C82.1882 32.4087 81.639 33.3672 80.7041 33.6127Z" fill="white"/>
</g>
</g>
<g id="Group_64">
<g id="Group_65">
<path id="Vector_30" fill-rule="evenodd" clip-rule="evenodd" d="M82.6106 42.7888C81.6523 42.9408 80.7407 42.2979 80.5771 41.3627C80.4135 40.4275 81.0446 39.5157 81.9912 39.3287C82.9378 39.1416 83.8493 39.7729 84.0246 40.7548C84.1999 41.7251 83.5689 42.6369 82.6106 42.7888Z" fill="white"/>
</g>
</g>
<g id="Group_66">
<g id="Group_67">
<path id="Vector_31" fill-rule="evenodd" clip-rule="evenodd" d="M83.6289 52.094C82.659 52.1525 81.8175 51.4277 81.7474 50.4809C81.6773 49.5341 82.4018 48.6924 83.3601 48.5872C84.3184 48.4937 85.1715 49.2068 85.2417 50.2004C85.3235 51.194 84.5989 52.0356 83.6289 52.094Z" fill="white"/>
</g>
</g>
<g id="Group_68">
<g id="Group_69">
<path id="Vector_32" fill-rule="evenodd" clip-rule="evenodd" d="M83.7684 61.4576C82.7984 61.4225 82.0388 60.6276 82.0622 59.6808C82.0973 58.7339 82.8802 57.9507 83.8385 57.9507C84.8202 57.9391 85.6032 58.734 85.5681 59.7276C85.5447 60.7212 84.7384 61.4927 83.7684 61.4576Z" fill="white"/>
</g>
</g>
<g id="Group_70">
<g id="Group_71">
<path id="Vector_33" fill-rule="evenodd" clip-rule="evenodd" d="M83.0424 70.7972C82.0841 70.6686 81.3946 69.8036 81.5232 68.8684C81.6634 67.9332 82.4581 67.2202 83.428 67.3137C84.3746 67.3956 85.1459 68.2723 85.0057 69.2542C84.8771 70.2244 84.0007 70.9258 83.0424 70.7972Z" fill="white"/>
</g>
</g>
<g id="Group_72">
<g id="Group_73">
<path id="Vector_34" fill-rule="evenodd" clip-rule="evenodd" d="M81.4308 80.0213C80.4842 79.8109 79.8882 78.8757 80.1102 77.9522C80.2855 77.017 81.1854 76.3975 82.1437 76.5845C83.0903 76.7599 83.733 77.695 83.546 78.6653C83.324 79.6355 82.3774 80.2434 81.4308 80.0213Z" fill="white"/>
</g>
</g>
<g id="Group_74">
<g id="Group_75">
<path id="Vector_35" fill-rule="evenodd" clip-rule="evenodd" d="M78.9531 89.0569C78.0299 88.753 77.5507 87.7827 77.8312 86.871C78.0883 85.9592 79.0583 85.4331 79.9932 85.702C80.9281 85.9709 81.4657 86.9528 81.1852 87.9113C80.8814 88.8465 79.8646 89.3608 78.9531 89.0569Z" fill="white"/>
</g>
</g>
<g id="Group_76">
<g id="Group_77">
<path id="Vector_36" fill-rule="evenodd" clip-rule="evenodd" d="M75.6117 97.8001C74.7118 97.4027 74.3496 96.3974 74.6885 95.509C75.0391 94.6206 76.0558 94.1997 76.9556 94.5504C77.8555 94.9011 78.2996 95.9415 77.9256 96.8533C77.575 97.7884 76.4881 98.1859 75.6117 97.8001Z" fill="white"/>
</g>
</g>
<g id="Group_78">
<g id="Group_79">
<path id="Vector_37" fill-rule="evenodd" clip-rule="evenodd" d="M71.4515 106.194C70.5984 105.715 70.3297 104.686 70.7504 103.833C71.1828 102.991 72.2345 102.664 73.0993 103.096C73.9641 103.529 74.303 104.604 73.8473 105.481C73.4032 106.369 72.2813 106.662 71.4515 106.194Z" fill="white"/>
</g>
</g>
<g id="Group_80">
<g id="Group_81">
<path id="Vector_38" fill-rule="evenodd" clip-rule="evenodd" d="M66.5075 114.154C65.7011 113.593 65.5375 112.541 66.0283 111.734C66.5425 110.94 67.6177 110.706 68.4358 111.232C69.2538 111.746 69.4876 112.845 68.95 113.675C68.4358 114.517 67.3022 114.704 66.5075 114.154Z" fill="white"/>
</g>
</g>
<g id="Group_82">
<g id="Group_83">
<path id="Vector_39" fill-rule="evenodd" clip-rule="evenodd" d="M60.8389 121.613C60.0909 120.981 60.0208 119.906 60.5935 119.158C61.1778 118.41 62.2763 118.293 63.0476 118.877C63.8072 119.473 63.9358 120.584 63.3281 121.367C62.7204 122.139 61.5751 122.232 60.8389 121.613Z" fill="white"/>
</g>
</g>
<g id="Group_84">
<g id="Group_85">
<path id="Vector_40" fill-rule="evenodd" clip-rule="evenodd" d="M54.4814 128.487C53.8035 127.797 53.8269 126.71 54.4697 126.008C55.1241 125.319 56.2343 125.307 56.9355 125.962C57.6367 126.628 57.66 127.739 56.9822 128.463C56.3044 129.2 55.1592 129.176 54.4814 128.487Z" fill="white"/>
</g>
</g>
<g id="Group_86">
<g id="Group_87">
<path id="Vector_41" fill-rule="evenodd" clip-rule="evenodd" d="M47.5045 134.74C46.8968 133.992 47.0137 132.905 47.7149 132.274C48.4278 131.654 49.538 131.736 50.169 132.461C50.8118 133.185 50.7183 134.308 49.9704 134.951C49.2458 135.617 48.1239 135.5 47.5045 134.74Z" fill="white"/>
</g>
</g>
<g id="Group_88">
<g id="Group_89">
<path id="Vector_42" fill-rule="evenodd" clip-rule="evenodd" d="M39.9795 140.304C39.4536 139.497 39.664 138.434 40.4236 137.861C41.1949 137.311 42.2817 137.498 42.8544 138.282C43.427 139.065 43.2283 140.164 42.422 140.737C41.6273 141.333 40.5171 141.111 39.9795 140.304Z" fill="white"/>
</g>
</g>
<g id="Group_90">
<g id="Group_91">
<path id="Vector_43" fill-rule="evenodd" clip-rule="evenodd" d="M31.9499 145.132C31.4942 144.29 31.8097 143.226 32.6277 142.747C33.4457 142.268 34.5209 142.571 35.0117 143.401C35.5025 144.231 35.2104 145.319 34.3456 145.81C33.4808 146.3 32.4057 145.985 31.9499 145.132Z" fill="white"/>
</g>
</g>
<g id="Group_92">
<g id="Group_93">
<path id="Vector_44" fill-rule="evenodd" clip-rule="evenodd" d="M23.5005 149.165C23.1382 148.276 23.5356 147.236 24.4004 146.85C25.2652 146.465 26.2936 146.85 26.7026 147.739C27.1116 148.615 26.7143 149.656 25.8144 150.065C24.9029 150.474 23.8745 150.065 23.5005 149.165Z" fill="white"/>
</g>
</g>
<g id="Group_94">
<g id="Group_95">
<path id="Vector_45" fill-rule="evenodd" clip-rule="evenodd" d="M14.7015 152.38C14.4211 151.456 14.9119 150.451 15.8118 150.147C16.7116 149.843 17.705 150.334 18.0205 151.246C18.3477 152.158 17.8452 153.151 16.9103 153.479C15.9754 153.794 14.982 153.303 14.7015 152.38Z" fill="white"/>
</g>
</g>
<g id="Group_96">
<g id="Group_97">
<path id="Vector_46" fill-rule="evenodd" clip-rule="evenodd" d="M5.63356 154.718C5.43489 153.771 6.03087 152.824 6.9541 152.614C7.87733 152.403 8.82396 152.988 9.05769 153.935C9.29142 154.87 8.6954 155.817 7.73711 156.039C6.76713 156.261 5.82054 155.665 5.63356 154.718Z" fill="white"/>
</g>
</g>
<g id="Group_98">
<g id="Group_99">
<path id="Vector_47" fill-rule="evenodd" clip-rule="evenodd" d="M-3.62248 156.178C-3.72766 155.22 -3.04986 154.332 -2.10326 154.215C-1.15665 154.098 -0.280142 154.776 -0.139904 155.734C0.000333446 156.693 -0.677503 157.57 -1.65917 157.698C-2.64083 157.827 -3.5173 157.149 -3.62248 156.178Z" fill="white"/>
</g>
</g>
</g>
</g>
</g>
<g id="Group_100">
<g id="Group_101">
<g id="Group_102">
<g id="Group_103">
<g id="Group_104">
<path id="Vector_48" fill-rule="evenodd" clip-rule="evenodd" d="M56.3743 4.86872C55.603 5.45319 54.4928 5.32462 53.9201 4.58819C53.3475 3.85175 53.476 2.75297 54.224 2.13343C54.9719 1.51389 56.0705 1.64248 56.6782 2.42567C57.2859 3.18548 57.1456 4.28425 56.3743 4.86872Z" fill="white"/>
</g>
</g>
<g id="Group_105">
<g id="Group_106">
<path id="Vector_49" fill-rule="evenodd" clip-rule="evenodd" d="M61.5871 12.5729C60.7691 13.0639 59.6822 12.8184 59.1797 12.0351C58.6772 11.2402 58.9226 10.1648 59.729 9.62705C60.5354 9.08932 61.6222 9.33483 62.1481 10.1648C62.674 10.9948 62.4285 12.0702 61.5871 12.5729Z" fill="white"/>
</g>
</g>
<g id="Group_107">
<g id="Group_108">
<path id="Vector_50" fill-rule="evenodd" clip-rule="evenodd" d="M65.9459 20.7903C65.0577 21.1995 64.0644 20.8137 63.6203 19.9954C63.1879 19.1538 63.5385 18.1134 64.4033 17.6692C65.2564 17.2249 66.3198 17.5639 66.7756 18.4524C67.243 19.3057 66.8106 20.3812 65.9459 20.7903Z" fill="white"/>
</g>
</g>
<g id="Group_109">
<g id="Group_110">
<path id="Vector_51" fill-rule="evenodd" clip-rule="evenodd" d="M69.4279 29.4053C68.5164 29.7209 67.523 29.2533 67.2191 28.3532C66.8686 27.4765 67.3243 26.4828 68.2242 26.1321C69.124 25.7814 70.1524 26.2373 70.5147 27.1491C70.8419 28.0843 70.3394 29.1013 69.4279 29.4053Z" fill="white"/>
</g>
</g>
<g id="Group_111">
<g id="Group_112">
<path id="Vector_52" fill-rule="evenodd" clip-rule="evenodd" d="M71.988 38.348C71.0414 38.5584 70.1064 37.9974 69.8961 37.0739C69.6857 36.1621 70.1999 35.227 71.1465 34.9581C72.0698 34.7009 73.0748 35.2503 73.2968 36.2088C73.5189 37.179 72.9346 38.1376 71.988 38.348Z" fill="white"/>
</g>
</g>
<g id="Group_113">
<g id="Group_114">
<path id="Vector_53" fill-rule="evenodd" clip-rule="evenodd" d="M73.5987 47.5123C72.6404 47.6292 71.7639 46.9629 71.6471 46.0277C71.5419 45.0925 72.1729 44.2158 73.1312 44.0521C74.0778 43.9001 75.0127 44.5548 75.1296 45.525C75.2348 46.507 74.5569 47.3954 73.5987 47.5123Z" fill="white"/>
</g>
</g>
<g id="Group_115">
<g id="Group_116">
<path id="Vector_54" fill-rule="evenodd" clip-rule="evenodd" d="M74.2415 56.7822C73.2715 56.7938 72.4652 56.0457 72.4418 55.0989C72.4301 54.152 73.1664 53.3455 74.1246 53.287C75.0946 53.2286 75.936 53.9767 75.9477 54.9586C75.9711 55.9639 75.2115 56.7705 74.2415 56.7822Z" fill="white"/>
</g>
</g>
<g id="Group_117">
<g id="Group_118">
<path id="Vector_55" fill-rule="evenodd" clip-rule="evenodd" d="M73.927 66.0866C72.9687 66.0047 72.2325 65.1631 72.3026 64.2279C72.3844 63.2927 73.2141 62.568 74.1724 62.603C75.1541 62.6498 75.8903 63.4798 75.8085 64.4617C75.7384 65.4437 74.8853 66.1684 73.927 66.0866Z" fill="white"/>
</g>
</g>
<g id="Group_119">
<g id="Group_120">
<path id="Vector_56" fill-rule="evenodd" clip-rule="evenodd" d="M72.6527 75.2979C71.7061 75.1108 71.0634 74.2108 71.227 73.2873C71.3906 72.3638 72.3022 71.7325 73.2604 71.8728C74.2187 72.0131 74.8615 72.9132 74.6862 73.8835C74.5109 74.842 73.5993 75.4849 72.6527 75.2979Z" fill="white"/>
</g>
</g>
<g id="Group_121">
<g id="Group_122">
<path id="Vector_57" fill-rule="evenodd" clip-rule="evenodd" d="M70.421 84.3236C69.4977 84.043 68.9485 83.0727 69.2056 82.1609C69.4627 81.2608 70.4327 80.7231 71.3676 80.9569C72.3025 81.2024 72.8518 82.161 72.583 83.1078C72.3142 84.0781 71.3442 84.6158 70.421 84.3236Z" fill="white"/>
</g>
</g>
<g id="Group_123">
<g id="Group_124">
<path id="Vector_58" fill-rule="evenodd" clip-rule="evenodd" d="M67.2536 93.067C66.3771 92.693 65.9213 91.6642 66.2719 90.7875C66.6225 89.9108 67.6393 89.4783 68.5391 89.8173C69.439 90.1563 69.8831 91.1733 69.5325 92.0968C69.1585 93.0203 68.1535 93.4528 67.2536 93.067Z" fill="white"/>
</g>
</g>
<g id="Group_125">
<g id="Group_126">
<path id="Vector_59" fill-rule="evenodd" clip-rule="evenodd" d="M63.1518 101.425C62.2987 100.946 62.0182 99.9171 62.4272 99.0637C62.8596 98.222 63.9114 97.8947 64.7762 98.3389C65.641 98.7715 65.9799 99.8353 65.5358 100.712C65.1034 101.589 63.9932 101.893 63.1518 101.425Z" fill="white"/>
</g>
</g>
<g id="Group_127">
<g id="Group_128">
<path id="Vector_60" fill-rule="evenodd" clip-rule="evenodd" d="M58.2208 109.304C57.4261 108.743 57.2391 107.679 57.765 106.896C58.2675 106.101 59.3426 105.891 60.1607 106.405C60.9787 106.931 61.2125 108.018 60.6749 108.848C60.1256 109.666 59.0038 109.853 58.2208 109.304Z" fill="white"/>
</g>
</g>
<g id="Group_129">
<g id="Group_130">
<path id="Vector_61" fill-rule="evenodd" clip-rule="evenodd" d="M52.4945 116.633C51.77 115.99 51.6765 114.903 52.2842 114.19C52.9036 113.489 53.967 113.348 54.7266 113.956C55.4746 114.552 55.6265 115.698 54.9721 116.434C54.3293 117.183 53.2191 117.264 52.4945 116.633Z" fill="white"/>
</g>
</g>
<g id="Group_131">
<g id="Group_132">
<path id="Vector_62" fill-rule="evenodd" clip-rule="evenodd" d="M46.031 123.319C45.3766 122.606 45.3883 121.508 46.0661 120.853C46.7556 120.21 47.8541 120.222 48.5319 120.9C49.2331 121.589 49.2214 122.7 48.5085 123.378C47.8074 124.056 46.6972 124.033 46.031 123.319Z" fill="white"/>
</g>
</g>
<g id="Group_133">
<g id="Group_134">
<path id="Vector_63" fill-rule="evenodd" clip-rule="evenodd" d="M38.9259 129.317C38.3416 128.546 38.4701 127.435 39.2064 126.862C39.9426 126.278 41.0411 126.418 41.6605 127.166C42.2799 127.914 42.1514 129.013 41.3684 129.621C40.6087 130.229 39.5102 130.089 38.9259 129.317Z" fill="white"/>
</g>
</g>
<g id="Group_135">
<g id="Group_136">
<path id="Vector_64" fill-rule="evenodd" clip-rule="evenodd" d="M31.2251 134.53C30.7342 133.711 30.9796 132.624 31.7626 132.122C32.5573 131.619 33.6325 131.864 34.17 132.671C34.7076 133.477 34.4622 134.565 33.6325 135.091C32.8027 135.617 31.7276 135.371 31.2251 134.53Z" fill="white"/>
</g>
</g>
<g id="Group_137">
<g id="Group_138">
<path id="Vector_65" fill-rule="evenodd" clip-rule="evenodd" d="M23.0078 138.891C22.5987 138.003 22.9844 137.009 23.8024 136.565C24.6438 136.132 25.6839 136.483 26.128 137.348C26.5721 138.201 26.2332 139.265 25.345 139.721C24.4919 140.189 23.4168 139.756 23.0078 138.891Z" fill="white"/>
</g>
</g>
<g id="Group_139">
<g id="Group_140">
<path id="Vector_66" fill-rule="evenodd" clip-rule="evenodd" d="M14.3974 142.374C14.0818 141.463 14.5493 140.469 15.4491 140.165C16.3256 139.814 17.319 140.27 17.6696 141.17C18.0201 142.07 17.5644 143.099 16.6528 143.462C15.7179 143.789 14.7012 143.298 14.3974 142.374Z" fill="white"/>
</g>
</g>
<g id="Group_141">
<g id="Group_142">
<path id="Vector_67" fill-rule="evenodd" clip-rule="evenodd" d="M5.45686 144.933C5.2465 143.987 5.80745 143.051 6.73068 142.841C7.64222 142.631 8.57717 143.145 8.84596 144.092C9.10306 145.015 8.55379 146.021 7.5955 146.243C6.62552 146.465 5.66721 145.88 5.45686 144.933Z" fill="white"/>
</g>
</g>
</g>
</g>
</g>
<g id="Group_143">
<g id="Group_144">
<g id="Group_145">
<g id="Group_146">
<g id="Group_147">
<path id="Vector_68" fill-rule="evenodd" clip-rule="evenodd" d="M39.4881 0.391273C38.822 1.10437 37.7468 1.11603 37.0223 0.508144C36.3094 -0.111428 36.2393 -1.21028 36.8587 -1.95844C37.4781 -2.69491 38.5999 -2.76506 39.3596 -2.11042C40.1308 -1.46746 40.1426 -0.310131 39.4881 0.391273Z" fill="white"/>
</g>
</g>
<g id="Group_148">
<g id="Group_149">
<path id="Vector_69" fill-rule="evenodd" clip-rule="evenodd" d="M45.9731 7.19445C45.2368 7.81401 44.1266 7.74385 43.5072 7.03078C42.8996 6.30601 42.9347 5.21888 43.6475 4.56426C44.3604 3.89795 45.4939 3.94464 46.1367 4.71616C46.7794 5.45261 46.7093 6.5632 45.9731 7.19445Z" fill="white"/>
</g>
</g>
<g id="Group_150">
<g id="Group_151">
<path id="Vector_70" fill-rule="evenodd" clip-rule="evenodd" d="M51.6081 14.6994C50.8017 15.2371 49.7383 15.0033 49.1773 14.2435C48.6281 13.472 48.8151 12.3848 49.598 11.812C50.381 11.2392 51.4795 11.4379 52.0638 12.2445C52.6482 13.0511 52.4145 14.1734 51.6081 14.6994Z" fill="white"/>
</g>
</g>
<g id="Group_152">
<g id="Group_153">
<path id="Vector_71" fill-rule="evenodd" clip-rule="evenodd" d="M56.3032 22.8351C55.4384 23.2676 54.3866 22.9287 53.9542 22.087C53.5335 21.2337 53.8023 20.2049 54.6554 19.714C55.4852 19.2464 56.6071 19.5386 57.0512 20.4387C57.5069 21.3388 57.168 22.4026 56.3032 22.8351Z" fill="white"/>
</g>
</g>
<g id="Group_154">
<g id="Group_155">
<path id="Vector_72" fill-rule="evenodd" clip-rule="evenodd" d="M60.0203 31.463C59.1204 31.7787 58.1037 31.3228 57.7531 30.4461C57.4025 29.5693 57.8466 28.5524 58.7464 28.1783C59.6346 27.8042 60.663 28.2602 61.0253 29.1836C61.3993 30.1071 60.9435 31.1357 60.0203 31.463Z" fill="white"/>
</g>
</g>
<g id="Group_156">
<g id="Group_157">
<path id="Vector_73" fill-rule="evenodd" clip-rule="evenodd" d="M62.6619 40.4745C61.7153 40.6849 60.7804 40.1121 60.57 39.1886C60.3363 38.2769 60.8622 37.3183 61.7971 37.0611C62.7204 36.804 63.7137 37.365 63.9708 38.3236C64.1928 39.3055 63.6085 40.2641 62.6619 40.4745Z" fill="white"/>
</g>
</g>
<g id="Group_158">
<g id="Group_159">
<path id="Vector_74" fill-rule="evenodd" clip-rule="evenodd" d="M64.2391 49.7325C63.2808 49.8377 62.3927 49.148 62.2758 48.2129C62.1589 47.2777 62.8367 46.3893 63.795 46.2373C64.7533 46.0854 65.6298 46.7633 65.7583 47.7569C65.8752 48.7506 65.1974 49.639 64.2391 49.7325Z" fill="white"/>
</g>
</g>
<g id="Group_160">
<g id="Group_161">
<path id="Vector_75" fill-rule="evenodd" clip-rule="evenodd" d="M64.6948 59.1193C63.7248 59.1076 62.9769 58.3244 62.9302 57.3776C62.9068 56.4308 63.6781 55.6359 64.6364 55.6008C65.6063 55.5657 66.4127 56.3372 66.436 57.3425C66.4828 58.3361 65.653 59.131 64.6948 59.1193Z" fill="white"/>
</g>
</g>
<g id="Group_162">
<g id="Group_163">
<path id="Vector_76" fill-rule="evenodd" clip-rule="evenodd" d="M64.0391 68.4954C63.0808 68.3668 62.3913 67.5017 62.5199 66.5666C62.6134 65.6197 63.4431 64.9183 64.4131 65.0002C65.3714 65.0703 66.1193 65.9471 66.0141 66.9407C65.8856 67.9226 65.0091 68.624 64.0391 68.4954Z" fill="white"/>
</g>
</g>
<g id="Group_164">
<g id="Group_165">
<path id="Vector_77" fill-rule="evenodd" clip-rule="evenodd" d="M62.3234 77.73C61.3885 77.4962 60.7924 76.5493 61.0028 75.6259C61.2132 74.7024 62.1598 74.1062 63.1064 74.2932C64.0647 74.4803 64.649 75.4271 64.4269 76.3973C64.2049 77.3676 63.2583 77.9637 62.3234 77.73Z" fill="white"/>
</g>
</g>
<g id="Group_166">
<g id="Group_167">
<path id="Vector_78" fill-rule="evenodd" clip-rule="evenodd" d="M59.4842 86.6841C58.5727 86.3334 58.1636 85.3514 58.4441 84.4396C58.748 83.5395 59.7414 83.0603 60.6646 83.3642C61.5878 83.6681 62.067 84.6734 61.7514 85.6203C61.4476 86.5671 60.3724 87.0231 59.4842 86.6841Z" fill="white"/>
</g>
</g>
<g id="Group_168">
<g id="Group_169">
<path id="Vector_79" fill-rule="evenodd" clip-rule="evenodd" d="M55.6144 95.2411C54.7613 94.7852 54.4107 93.7332 54.8431 92.8916C55.2872 92.0499 56.3039 91.6875 57.1804 92.0966C58.0569 92.5057 58.4425 93.5812 57.9751 94.4579C57.531 95.3463 56.4675 95.6969 55.6144 95.2411Z" fill="white"/>
</g>
</g>
<g id="Group_170">
<g id="Group_171">
<path id="Vector_80" fill-rule="evenodd" clip-rule="evenodd" d="M50.7645 103.284C49.9698 102.734 49.7828 101.659 50.2736 100.852C50.7878 100.057 51.863 99.8237 52.6927 100.338C53.5108 100.852 53.7445 101.939 53.2069 102.781C52.681 103.623 51.5591 103.833 50.7645 103.284Z" fill="white"/>
</g>
</g>
<g id="Group_172">
<g id="Group_173">
<path id="Vector_81" fill-rule="evenodd" clip-rule="evenodd" d="M44.9787 110.683C44.2542 110.041 44.1724 108.942 44.7917 108.217C45.4228 107.516 46.4863 107.375 47.2459 107.983C47.9938 108.579 48.1457 109.737 47.4679 110.473C46.8252 111.233 45.7033 111.326 44.9787 110.683Z" fill="white"/>
</g>
</g>
<g id="Group_174">
<g id="Group_175">
<path id="Vector_82" fill-rule="evenodd" clip-rule="evenodd" d="M38.3771 117.369C37.7344 116.655 37.7928 115.557 38.4706 114.89C39.1601 114.236 40.2703 114.271 40.9481 114.961C41.6259 115.65 41.5908 116.761 40.878 117.45C40.1534 118.14 39.0315 118.093 38.3771 117.369Z" fill="white"/>
</g>
</g>
<g id="Group_176">
<g id="Group_177">
<path id="Vector_83" fill-rule="evenodd" clip-rule="evenodd" d="M31.0286 123.214C30.4793 122.419 30.6546 121.332 31.4259 120.783C32.1972 120.233 33.2607 120.35 33.8683 121.122C34.4527 121.882 34.3241 123.027 33.5061 123.6C32.6997 124.184 31.5895 124.009 31.0286 123.214Z" fill="white"/>
</g>
</g>
<g id="Group_178">
<g id="Group_179">
<path id="Vector_84" fill-rule="evenodd" clip-rule="evenodd" d="M23.0573 128.171C22.6015 127.329 22.8937 126.242 23.7234 125.775C24.5414 125.307 25.6166 125.599 26.1191 126.418C26.6217 127.248 26.3295 128.323 25.4647 128.826C24.5882 129.328 23.513 129.036 23.0573 128.171Z" fill="white"/>
</g>
</g>
<g id="Group_180">
<g id="Group_181">
<path id="Vector_85" fill-rule="evenodd" clip-rule="evenodd" d="M14.5377 132.122C14.1871 131.222 14.6195 130.205 15.4959 129.854C16.3607 129.48 17.3892 129.866 17.7865 130.754C18.1839 131.631 17.7748 132.695 16.8633 133.092C15.9284 133.454 14.8883 133.022 14.5377 132.122Z" fill="white"/>
</g>
</g>
<g id="Group_182">
<g id="Group_183">
<path id="Vector_86" fill-rule="evenodd" clip-rule="evenodd" d="M5.60912 135.057C5.3637 134.121 5.91298 133.151 6.82453 132.882C7.73608 132.625 8.70604 133.163 8.99821 134.086C9.29037 135.01 8.75281 135.98 7.78283 136.249C6.82454 136.541 5.85454 135.992 5.60912 135.057Z" fill="white"/>
</g>
</g>
<g id="Group_184">
<g id="Group_185">
<path id="Vector_87" fill-rule="evenodd" clip-rule="evenodd" d="M-3.6009 136.88C-3.72945 135.91 -3.06333 135.08 -2.14012 134.893C-1.20523 134.729 -0.305388 135.36 -0.130095 136.319C0.0451984 137.266 -0.597531 138.189 -1.57917 138.364C-2.56081 138.551 -3.47235 137.827 -3.6009 136.88Z" fill="white"/>
</g>
</g>
</g>
</g>
</g>
<g id="Group_186">
<g id="Group_187">
<g id="Group_188">
<g id="Group_189">
<g id="Group_190">
<path id="Vector_88" fill-rule="evenodd" clip-rule="evenodd" d="M23.5705 0.0167138C23.0329 0.823315 21.9578 1.06877 21.1748 0.566103C20.3918 0.0517491 20.1113 -0.976934 20.6022 -1.8186C21.0813 -2.64858 22.1915 -2.96422 23.0212 -2.4148C23.8627 -1.88875 24.1081 -0.789887 23.5705 0.0167138Z" fill="white"/>
</g>
</g>
<g id="Group_191">
<g id="Group_192">
<path id="Vector_89" fill-rule="evenodd" clip-rule="evenodd" d="M31.0026 5.62785C30.3599 6.36431 29.273 6.44614 28.5602 5.84996C27.8239 5.27716 27.7071 4.17828 28.3031 3.41844C28.8991 2.6586 30.0093 2.53002 30.7923 3.1379C31.5519 3.76915 31.6337 4.90308 31.0026 5.62785Z" fill="white"/>
</g>
</g>
<g id="Group_193">
<g id="Group_194">
<path id="Vector_90" fill-rule="evenodd" clip-rule="evenodd" d="M37.6294 12.1735C36.8932 12.8164 35.8298 12.7464 35.1753 12.0801C34.5326 11.4021 34.5676 10.3032 35.2571 9.62519C35.9466 8.94719 37.0568 8.97056 37.7463 9.69532C38.4358 10.385 38.3423 11.5306 37.6294 12.1735Z" fill="white"/>
</g>
</g>
<g id="Group_195">
<g id="Group_196">
<path id="Vector_91" fill-rule="evenodd" clip-rule="evenodd" d="M43.332 19.527C42.5374 20.0531 41.4389 19.8777 40.8896 19.1179C40.3521 18.358 40.5391 17.2592 41.3103 16.6748C42.0816 16.0903 43.1801 16.2773 43.7528 17.0839C44.3254 17.8905 44.1501 18.9893 43.332 19.527Z" fill="white"/>
</g>
</g>
<g id="Group_197">
<g id="Group_198">
<path id="Vector_92" fill-rule="evenodd" clip-rule="evenodd" d="M47.9851 27.5929C47.1203 28.0137 46.0569 27.6864 45.6362 26.8564C45.2271 26.0148 45.5193 24.9744 46.3607 24.5068C47.2021 24.0275 48.3007 24.3431 48.7447 25.2316C49.2005 26.1083 48.8616 27.1721 47.9851 27.5929Z" fill="white"/>
</g>
</g>
<g id="Group_199">
<g id="Group_200">
<path id="Vector_93" fill-rule="evenodd" clip-rule="evenodd" d="M51.5257 36.2074C50.6024 36.5113 49.6207 36.0437 49.3169 35.1553C48.9897 34.2786 49.4338 33.2849 50.3336 32.9225C51.2335 32.5718 52.2619 33.0161 52.6125 33.9512C52.9397 34.8864 52.4489 35.9034 51.5257 36.2074Z" fill="white"/>
</g>
</g>
<g id="Group_201">
<g id="Group_202">
<path id="Vector_94" fill-rule="evenodd" clip-rule="evenodd" d="M53.8843 45.2092C52.926 45.3846 52.0495 44.7767 51.8158 43.8649C51.6055 42.9531 52.2015 42.0296 53.1364 41.7958C54.0713 41.562 55.0179 42.1582 55.2399 43.1284C55.497 44.0987 54.8309 45.0339 53.8843 45.2092Z" fill="white"/>
</g>
</g>
<g id="Group_203">
<g id="Group_204">
<path id="Vector_95" fill-rule="evenodd" clip-rule="evenodd" d="M55.0295 54.4547C54.0595 54.5015 53.218 53.7884 53.1479 52.8533C53.0778 51.9181 53.8024 51.0764 54.749 50.9712C55.719 50.866 56.5721 51.5791 56.6422 52.5727C56.7123 53.5663 55.9878 54.408 55.0295 54.4547Z" fill="white"/>
</g>
</g>
<g id="Group_205">
<g id="Group_206">
<path id="Vector_96" fill-rule="evenodd" clip-rule="evenodd" d="M54.9137 63.7714C53.9437 63.6896 53.2192 62.8713 53.2893 61.9361C53.3243 61.001 54.119 60.2645 55.0889 60.2762C56.0589 60.2996 56.8302 61.1179 56.7952 62.1115C56.7251 63.1051 55.8836 63.8415 54.9137 63.7714Z" fill="white"/>
</g>
</g>
<g id="Group_207">
<g id="Group_208">
<path id="Vector_97" fill-rule="evenodd" clip-rule="evenodd" d="M53.5925 72.9836C52.6576 72.7732 52.0499 71.8731 52.2018 70.9496C52.3654 70.0261 53.277 69.4066 54.2353 69.5585C55.1935 69.7105 55.8246 70.6223 55.6493 71.6042C55.4974 72.5744 54.5508 73.194 53.5925 72.9836Z" fill="white"/>
</g>
</g>
<g id="Group_209">
<g id="Group_210">
<path id="Vector_98" fill-rule="evenodd" clip-rule="evenodd" d="M51.0455 81.9496C50.1339 81.6223 49.6431 80.6287 49.9353 79.7403C50.2508 78.8519 51.2208 78.3609 52.1323 78.6298C53.0672 78.9103 53.5931 79.904 53.2659 80.8392C52.9503 81.786 51.957 82.2769 51.0455 81.9496Z" fill="white"/>
</g>
</g>
<g id="Group_211">
<g id="Group_212">
<path id="Vector_99" fill-rule="evenodd" clip-rule="evenodd" d="M47.3072 90.4716C46.4541 90.0157 46.1035 88.9753 46.5242 88.1454C46.9449 87.3037 47.95 86.9296 48.8382 87.3271C49.7146 87.7245 50.1236 88.7883 49.6795 89.6767C49.2238 90.5768 48.1603 90.9275 47.3072 90.4716Z" fill="white"/>
</g>
</g>
<g id="Group_213">
<g id="Group_214">
<path id="Vector_100" fill-rule="evenodd" clip-rule="evenodd" d="M42.4672 98.4317C41.6725 97.8706 41.4972 96.8069 41.9997 96.0237C42.5022 95.2405 43.5774 95.0184 44.4071 95.5327C45.2251 96.047 45.4589 97.1459 44.9213 97.9758C44.3837 98.7941 43.2501 98.9811 42.4672 98.4317Z" fill="white"/>
</g>
</g>
<g id="Group_215">
<g id="Group_216">
<path id="Vector_101" fill-rule="evenodd" clip-rule="evenodd" d="M36.6236 105.679C35.9224 105.025 35.864 103.938 36.4716 103.224C37.0793 102.511 38.1896 102.441 38.9375 103.061C39.6854 103.68 39.7556 104.791 39.1128 105.539C38.4584 106.299 37.3365 106.346 36.6236 105.679Z" fill="white"/>
</g>
</g>
<g id="Group_217">
<g id="Group_218">
<path id="Vector_102" fill-rule="evenodd" clip-rule="evenodd" d="M29.8686 112.086C29.2492 111.338 29.331 110.227 30.0322 109.619C30.7451 109.012 31.8436 109.093 32.4981 109.795C33.1642 110.52 33.0941 111.618 32.3345 112.273C31.5865 112.916 30.4763 112.834 29.8686 112.086Z" fill="white"/>
</g>
</g>
<g id="Group_219">
<g id="Group_220">
<path id="Vector_103" fill-rule="evenodd" clip-rule="evenodd" d="M22.3073 117.521C21.7931 116.703 22.0268 115.616 22.8098 115.113C23.6044 114.622 24.6562 114.798 25.2171 115.592C25.7664 116.376 25.5911 117.521 24.738 118.036C23.9083 118.585 22.8215 118.351 22.3073 117.521Z" fill="white"/>
</g>
</g>
<g id="Group_221">
<g id="Group_222">
<path id="Vector_104" fill-rule="evenodd" clip-rule="evenodd" d="M14.1051 121.917C13.7078 121.028 14.0817 120 14.9348 119.614C15.7646 119.181 16.8046 119.544 17.2487 120.397C17.6928 121.25 17.3422 122.326 16.4541 122.77C15.5542 123.191 14.4908 122.793 14.1051 121.917Z" fill="white"/>
</g>
</g>
<g id="Group_223">
<g id="Group_224">
<path id="Vector_105" fill-rule="evenodd" clip-rule="evenodd" d="M5.37555 125.178C5.10676 124.243 5.62095 123.308 6.49744 122.992C7.38562 122.688 8.3673 123.191 8.69452 124.103C9.02174 125.014 8.51921 126.008 7.58428 126.335C6.64936 126.651 5.65602 126.102 5.37555 125.178Z" fill="white"/>
</g>
</g>
</g>
</g>
</g>
<g id="Group_225">
<g id="Group_226">
<g id="Group_227">
<g id="Group_228">
<g id="Group_229">
<path id="Vector_106" fill-rule="evenodd" clip-rule="evenodd" d="M2.48827 0.706389C2.2078 1.62987 1.23781 2.20269 0.326268 1.96889C-0.585277 1.7351 -1.15793 0.776527 -0.935891 -0.170337C-0.725534 -1.1172 0.24445 -1.67831 1.22611 -1.42114C2.19609 -1.17566 2.76875 -0.217095 2.48827 0.706389Z" fill="white"/>
</g>
</g>
<g id="Group_230">
<g id="Group_231">
<path id="Vector_107" fill-rule="evenodd" clip-rule="evenodd" d="M11.2759 4.11998C10.8552 4.9967 9.82675 5.37073 8.97363 4.9616C8.1322 4.51739 7.68811 3.57057 8.05039 2.65879C8.40098 1.77038 9.48783 1.27938 10.3877 1.74697C11.2992 2.17948 11.6966 3.24326 11.2759 4.11998Z" fill="white"/>
</g>
</g>
<g id="Group_232">
<g id="Group_233">
<path id="Vector_108" fill-rule="evenodd" clip-rule="evenodd" d="M19.467 8.79579C19.1865 9.19324 18.7892 9.43871 18.3568 9.50885C17.9127 9.61406 17.4336 9.55563 17.0246 9.31014C16.2182 8.81918 15.9728 7.74367 16.4636 6.9137C16.9544 6.08373 18.0646 5.83828 18.9294 6.36432C19.3618 6.62149 19.6423 7.03063 19.7475 7.46315C19.8293 7.91905 19.7358 8.39835 19.467 8.79579Z" fill="white"/>
</g>
</g>
<g id="Group_234">
<g id="Group_235">
<path id="Vector_109" fill-rule="evenodd" clip-rule="evenodd" d="M26.7739 14.7581C26.1077 15.4595 24.9975 15.5062 24.2963 14.875C23.5951 14.2437 23.5367 13.1216 24.1561 12.3734C24.7754 11.6253 25.8857 11.5785 26.6336 12.2565C27.3816 12.9462 27.44 14.0567 26.7739 14.7581Z" fill="white"/>
</g>
</g>
<g id="Group_236">
<g id="Group_237">
<path id="Vector_110" fill-rule="evenodd" clip-rule="evenodd" d="M33.0825 21.7719C32.3112 22.3563 31.2244 22.2161 30.6634 21.4679C30.0674 20.7314 30.1142 19.6794 30.8504 19.0248C31.5633 18.3935 32.7436 18.452 33.3747 19.2469C33.9824 20.0535 33.8538 21.1757 33.0825 21.7719Z" fill="white"/>
</g>
</g>
<g id="Group_238">
<g id="Group_239">
<path id="Vector_111" fill-rule="evenodd" clip-rule="evenodd" d="M38.2834 29.6389C37.4303 30.0948 36.3434 29.8142 35.8526 29.0077C35.3618 28.2011 35.6306 27.1257 36.4486 26.6113C37.2667 26.097 38.3535 26.3775 38.8794 27.2425C39.4053 28.1076 39.1365 29.183 38.2834 29.6389Z" fill="white"/>
</g>
</g>
<g id="Group_240">
<g id="Group_241">
<path id="Vector_112" fill-rule="evenodd" clip-rule="evenodd" d="M42.0704 38.2776C41.1588 38.5933 40.1538 38.1374 39.8266 37.2489C39.4993 36.3605 39.9668 35.3319 40.855 34.9461C41.7431 34.5603 42.7482 35.0279 43.0988 35.9748C43.4377 36.9334 42.9819 37.962 42.0704 38.2776Z" fill="white"/>
</g>
</g>
<g id="Group_242">
<g id="Group_243">
<path id="Vector_113" fill-rule="evenodd" clip-rule="evenodd" d="M44.5243 47.3835C43.5426 47.5588 42.7479 46.9276 42.4792 46.0158C42.2454 45.104 42.8181 44.1688 43.753 43.9351C44.6879 43.7013 45.6579 44.2974 45.9033 45.2793C46.1837 46.2496 45.4475 47.2198 44.5243 47.3835Z" fill="white"/>
</g>
</g>
<g id="Group_244">
<g id="Group_245">
<path id="Vector_114" fill-rule="evenodd" clip-rule="evenodd" d="M45.4946 56.7703C44.5246 56.7937 43.6949 56.0456 43.6481 55.0987C43.6014 54.1519 44.3493 53.3219 45.3076 53.2284C46.2659 53.1466 47.0956 53.8947 47.1424 54.9C47.2008 55.9053 46.4646 56.747 45.4946 56.7703Z" fill="white"/>
</g>
</g>
<g id="Group_246">
<g id="Group_247">
<path id="Vector_115" fill-rule="evenodd" clip-rule="evenodd" d="M45.0025 66.1811C44.0442 66.0525 43.3898 65.1875 43.5184 64.2523C43.5651 63.3055 44.3832 62.5923 45.3531 62.6625C46.3231 62.7209 47.0593 63.5977 47.0126 64.603C46.8723 65.6084 45.9608 66.3097 45.0025 66.1811Z" fill="white"/>
</g>
</g>
<g id="Group_248">
<g id="Group_249">
<path id="Vector_116" fill-rule="evenodd" clip-rule="evenodd" d="M43.086 75.415C42.1628 75.1344 41.5901 74.1641 41.8239 73.2523C42.0576 72.3406 43.0159 71.7678 43.9625 71.9899C44.9091 72.2003 45.47 73.1705 45.2129 74.1525C44.9675 75.1227 44.0092 75.6955 43.086 75.415Z" fill="white"/>
</g>
</g>
<g id="Group_250">
<g id="Group_251">
<path id="Vector_117" fill-rule="evenodd" clip-rule="evenodd" d="M39.6735 84.206C38.797 83.7852 38.423 82.7565 38.8321 81.9032C39.2761 81.0615 40.2228 80.6173 41.1343 80.9797C42.0225 81.3304 42.5133 82.4175 42.0458 83.3177C41.6134 84.2294 40.55 84.6268 39.6735 84.206Z" fill="white"/>
</g>
</g>
<g id="Group_252">
<g id="Group_253">
<path id="Vector_118" fill-rule="evenodd" clip-rule="evenodd" d="M34.999 92.401C34.6016 92.1204 34.3562 91.723 34.2861 91.2905C34.1809 90.8463 34.2393 90.3671 34.4847 89.9579C34.9756 89.1514 36.0508 88.9058 36.8805 89.3968C37.7102 89.8877 37.9557 90.9983 37.4298 91.8633C37.1727 92.2958 36.7636 92.5763 36.3312 92.6815C35.8755 92.7633 35.3963 92.6698 34.999 92.401Z" fill="white"/>
</g>
</g>
<g id="Group_254">
<g id="Group_255">
<path id="Vector_119" fill-rule="evenodd" clip-rule="evenodd" d="M29.0393 99.7058C28.3381 99.0396 28.2913 97.9291 28.9224 97.2277C29.5535 96.5264 30.6754 96.468 31.4233 97.0875C32.1712 97.707 32.218 98.8175 31.5402 99.5656C30.8624 100.314 29.7405 100.384 29.0393 99.7058Z" fill="white"/>
</g>
</g>
<g id="Group_256">
<g id="Group_257">
<path id="Vector_120" fill-rule="evenodd" clip-rule="evenodd" d="M22.04 106.019C21.4557 105.247 21.596 104.16 22.3439 103.599C23.0801 103.003 24.1319 103.05 24.7864 103.786C25.4174 104.499 25.359 105.68 24.5643 106.311C23.758 106.919 22.6244 106.79 22.04 106.019Z" fill="white"/>
</g>
</g>
<g id="Group_258">
<g id="Group_259">
<path id="Vector_121" fill-rule="evenodd" clip-rule="evenodd" d="M14.1626 111.221C13.7068 110.368 13.9873 109.281 14.7937 108.79C15.6 108.299 16.6752 108.568 17.1894 109.386C17.7036 110.204 17.4231 111.291 16.5583 111.817C15.6935 112.343 14.6184 112.075 14.1626 111.221Z" fill="white"/>
</g>
</g>
<g id="Group_260">
<g id="Group_261">
<path id="Vector_122" fill-rule="evenodd" clip-rule="evenodd" d="M5.52617 115.008C5.21064 114.096 5.66642 113.091 6.55458 112.764C7.44274 112.436 8.47114 112.904 8.85679 113.792C9.24244 114.681 8.77498 115.686 7.82839 116.037C6.87011 116.376 5.84171 115.92 5.52617 115.008Z" fill="white"/>
</g>
</g>
<g id="Group_262">
<g id="Group_263">
<path id="Vector_123" fill-rule="evenodd" clip-rule="evenodd" d="M-3.57708 117.463C-3.75238 116.481 -3.12133 115.686 -2.20978 115.417C-1.29823 115.183 -0.363314 115.756 -0.129585 116.691C0.104145 117.626 -0.491859 118.597 -1.47352 118.842C-2.4435 119.123 -3.41347 118.386 -3.57708 117.463Z" fill="white"/>
</g>
</g>
</g>
</g>
</g>
<g id="Group_264">
<g id="Group_265">
<g id="Group_266">
<g id="Group_267">
<g id="Group_268">
<path id="Vector_124" fill-rule="evenodd" clip-rule="evenodd" d="M2.20809 10.7011C1.88088 11.6129 0.910923 12.0921 0.0344439 11.7765C-0.853722 11.531 -1.3913 10.5959 -1.13419 9.6607C-0.88878 8.72553 0.116242 8.16445 1.08621 8.43331C2.03281 8.77231 2.53531 9.78931 2.20809 10.7011Z" fill="white"/>
</g>
</g>
<g id="Group_269">
<g id="Group_270">
<path id="Vector_125" fill-rule="evenodd" clip-rule="evenodd" d="M10.682 14.5826C10.1795 15.4359 9.17446 15.6698 8.34472 15.2606C7.50329 14.8631 7.17609 13.8228 7.5968 12.946C8.01752 12.0693 9.09266 11.7186 9.99252 12.1628C10.8924 12.6187 11.1612 13.7643 10.682 14.5826Z" fill="white"/>
</g>
</g>
<g id="Group_271">
<g id="Group_272">
<path id="Vector_126" fill-rule="evenodd" clip-rule="evenodd" d="M18.2886 19.9721C17.6459 20.7202 16.6175 20.7552 15.8462 20.2292C15.0983 19.6798 14.9697 18.5926 15.5424 17.8094C16.115 17.0262 17.2369 16.886 18.0432 17.4821C18.873 18.0549 18.9197 19.2473 18.2886 19.9721Z" fill="white"/>
</g>
</g>
<g id="Group_273">
<g id="Group_274">
<path id="Vector_127" fill-rule="evenodd" clip-rule="evenodd" d="M24.797 26.6584C24.423 26.9623 23.9672 27.0792 23.5348 27.0325C23.0907 26.9974 22.6466 26.8221 22.3311 26.4714C21.7117 25.7817 21.7702 24.6945 22.483 24.0282C23.1842 23.3618 24.3061 23.432 24.984 24.1801C25.3229 24.5542 25.4748 25.0102 25.4397 25.4544C25.393 25.9103 25.1709 26.3545 24.797 26.6584Z" fill="white"/>
</g>
</g>
<g id="Group_275">
<g id="Group_276">
<path id="Vector_128" fill-rule="evenodd" clip-rule="evenodd" d="M29.9769 34.4195C29.1472 34.8637 28.0487 34.5948 27.5695 33.7999C27.0904 33.005 27.3592 31.9413 28.1772 31.4153C28.9953 30.8892 30.0821 31.1698 30.5963 32.0231C31.1222 32.8882 30.8534 33.9519 29.9769 34.4195Z" fill="white"/>
</g>
</g>
<g id="Group_277">
<g id="Group_278">
<path id="Vector_129" fill-rule="evenodd" clip-rule="evenodd" d="M33.6107 43.0113C32.6875 43.3035 31.6708 42.8243 31.3552 41.9592C31.0397 41.0942 31.5072 40.0888 32.407 39.7264C33.3069 39.3641 34.3119 39.8317 34.6625 40.7786C35.0131 41.7137 34.5339 42.719 33.6107 43.0113Z" fill="white"/>
</g>
</g>
<g id="Group_279">
<g id="Group_280">
<path id="Vector_130" fill-rule="evenodd" clip-rule="evenodd" d="M35.5842 52.129C34.6259 52.2459 33.7261 51.5912 33.5858 50.6677C33.4456 49.7559 34.1117 48.8558 35.0583 48.657C36.0049 48.47 36.9048 49.1129 37.0567 50.1183C37.1969 51.1119 36.5425 52.0121 35.5842 52.129Z" fill="white"/>
</g>
</g>
<g id="Group_281">
<g id="Group_282">
<path id="Vector_131" fill-rule="evenodd" clip-rule="evenodd" d="M35.8529 61.4461C34.8829 61.376 34.135 60.5812 34.1817 59.646C34.2518 58.7225 35.0348 57.9627 35.9814 57.9393C36.9748 57.9276 37.7577 58.7342 37.6876 59.7278C37.6409 60.7448 36.8111 61.5163 35.8529 61.4461Z" fill="white"/>
</g>
</g>
<g id="Group_283">
<g id="Group_284">
<path id="Vector_132" fill-rule="evenodd" clip-rule="evenodd" d="M34.4405 70.6576C33.5056 70.4121 32.9329 69.4886 33.155 68.6002C33.377 67.7001 34.2068 67.0806 35.1767 67.2442C36.1116 67.4079 36.8245 68.3547 36.5908 69.3367C36.3337 70.3069 35.3754 70.9031 34.4405 70.6576Z" fill="white"/>
</g>
</g>
<g id="Group_285">
<g id="Group_286">
<path id="Vector_133" fill-rule="evenodd" clip-rule="evenodd" d="M31.3545 79.4597C30.4664 79.0505 30.1041 78.0452 30.4781 77.1919C30.7936 76.3151 31.7869 75.8944 32.6985 76.2217C33.61 76.5607 34.0658 77.6011 33.7152 78.5479C33.3179 79.4714 32.2193 79.8688 31.3545 79.4597Z" fill="white"/>
</g>
</g>
<g id="Group_287">
<g id="Group_288">
<path id="Vector_134" fill-rule="evenodd" clip-rule="evenodd" d="M26.7033 87.5376C25.8969 86.9531 25.78 85.9478 26.2358 85.1412C26.7149 84.3463 27.7784 84.1125 28.6081 84.6151C29.4379 85.1178 29.6833 86.2166 29.1691 87.0699C28.6666 87.9467 27.4629 88.087 26.7033 87.5376Z" fill="white"/>
</g>
</g>
<g id="Group_289">
<g id="Group_290">
<path id="Vector_135" fill-rule="evenodd" clip-rule="evenodd" d="M20.6399 94.634C19.9737 93.9326 19.9971 92.8805 20.6048 92.1675C21.2242 91.4778 22.3227 91.4427 23.0473 92.0856C23.7718 92.7286 23.8069 93.8507 23.1291 94.5989C22.4746 95.3704 21.306 95.3353 20.6399 94.634Z" fill="white"/>
</g>
</g>
<g id="Group_291">
<g id="Group_292">
<path id="Vector_136" fill-rule="evenodd" clip-rule="evenodd" d="M13.393 100.501C12.8788 99.7058 13.0658 98.6187 13.7904 98.0576C14.5383 97.4965 15.6134 97.6719 16.2095 98.4317C16.8055 99.1915 16.6302 100.302 15.8238 100.91C15.0291 101.518 13.9306 101.331 13.393 100.501Z" fill="white"/>
</g>
</g>
<g id="Group_293">
<g id="Group_294">
<path id="Vector_137" fill-rule="evenodd" clip-rule="evenodd" d="M5.17758 104.944C4.80361 104.055 5.17758 102.991 6.01901 102.594C6.84875 102.196 7.88886 102.571 8.33294 103.424C8.77703 104.277 8.40306 105.341 7.49152 105.774C6.59166 106.206 5.55155 105.832 5.17758 104.944Z" fill="white"/>
</g>
</g>
</g>
</g>
</g>
<g id="Group_295">
<g id="Group_296">
<g id="Group_297">
<g id="Group_298">
<g id="Group_299">
<path id="Vector_138" fill-rule="evenodd" clip-rule="evenodd" d="M1.8112 20.7778C1.61253 21.2221 1.27364 21.5377 0.8763 21.7013C0.467274 21.8884 0.0114836 21.9351 -0.420915 21.7715C-1.27403 21.4558 -1.70642 20.4622 -1.40257 19.5387C-1.09872 18.6152 -0.0936985 18.1476 0.852904 18.4983C1.32036 18.6737 1.67096 19.0126 1.84626 19.4101C1.99818 19.8426 1.99818 20.3453 1.8112 20.7778Z" fill="white"/>
</g>
</g>
<g id="Group_300">
<g id="Group_301">
<path id="Vector_139" fill-rule="evenodd" clip-rule="evenodd" d="M9.73571 25.3944C9.15139 26.1659 8.09962 26.3646 7.37506 25.8152C6.60376 25.3477 6.3817 24.2956 6.88422 23.4656C7.38673 22.6357 8.48527 22.3902 9.33838 22.9046C10.1447 23.5007 10.32 24.6229 9.73571 25.3944Z" fill="white"/>
</g>
</g>
<g id="Group_302">
<g id="Group_303">
<path id="Vector_140" fill-rule="evenodd" clip-rule="evenodd" d="M16.4643 31.6256C15.728 32.2568 14.6295 32.2218 14.0218 31.5555C13.4258 30.8775 13.4608 29.7904 14.1153 29.1124C14.8048 28.3994 15.915 28.411 16.5811 29.1591C17.2589 29.8839 17.2122 30.9944 16.4643 31.6256Z" fill="white"/>
</g>
</g>
<g id="Group_304">
<g id="Group_305">
<path id="Vector_141" fill-rule="evenodd" clip-rule="evenodd" d="M21.6649 39.1883C20.8234 39.6208 19.7716 39.3519 19.2925 38.5804C18.825 37.809 19.1055 36.7452 19.9119 36.2192C20.7183 35.6932 21.8051 35.9504 22.3193 36.8037C22.8452 37.657 22.5413 38.7324 21.6649 39.1883Z" fill="white"/>
</g>
</g>
<g id="Group_306">
<g id="Group_307">
<path id="Vector_142" fill-rule="evenodd" clip-rule="evenodd" d="M24.997 47.7337C24.0504 47.9792 23.1271 47.4648 22.8817 46.5881C22.5662 45.7348 23.057 44.7763 23.9686 44.4489C24.8801 44.1099 25.8968 44.6009 26.2357 45.5361C26.5045 46.5063 25.9202 47.5 24.997 47.7337Z" fill="white"/>
</g>
</g>
<g id="Group_308">
<g id="Group_309">
<path id="Vector_143" fill-rule="evenodd" clip-rule="evenodd" d="M26.3516 56.8059C25.3817 56.8292 24.5636 56.1278 24.5169 55.2277C24.5052 54.3159 25.1246 53.4977 26.0945 53.3808C27.0411 53.2522 27.9878 53.9536 28.0111 54.9589C28.0696 55.9408 27.3216 56.7825 26.3516 56.8059Z" fill="white"/>
</g>
</g>
<g id="Group_310">
<g id="Group_311">
<path id="Vector_144" fill-rule="evenodd" clip-rule="evenodd" d="M25.7078 65.9578C24.7612 65.7708 24.0951 64.8941 24.2353 64.0057C24.3755 63.1173 25.2754 62.4627 26.2337 62.5562C27.2036 62.6497 27.8581 63.5264 27.7062 64.5083C27.5426 65.4902 26.6544 66.1448 25.7078 65.9578Z" fill="white"/>
</g>
</g>
<g id="Group_312">
<g id="Group_313">
<path id="Vector_145" fill-rule="evenodd" clip-rule="evenodd" d="M23.0212 74.7363C22.5771 74.5376 22.2616 74.1986 22.098 73.8011C21.911 73.392 21.8643 72.9361 22.0279 72.5036C22.3434 71.6502 23.3368 71.2177 24.26 71.5216C25.1832 71.8255 25.6507 72.8309 25.3001 73.7777C25.1248 74.2453 24.7859 74.596 24.3886 74.7714C23.9562 74.9234 23.4536 74.9233 23.0212 74.7363Z" fill="white"/>
</g>
</g>
<g id="Group_314">
<g id="Group_315">
<path id="Vector_146" fill-rule="evenodd" clip-rule="evenodd" d="M18.4048 82.6634C17.6335 82.0789 17.4348 81.0268 17.9841 80.302C18.4516 79.5305 19.5033 79.3084 20.3331 79.811C21.1628 80.3137 21.4082 81.4125 20.894 82.2659C20.298 83.0725 19.1761 83.2479 18.4048 82.6634Z" fill="white"/>
</g>
</g>
<g id="Group_316">
<g id="Group_317">
<path id="Vector_147" fill-rule="evenodd" clip-rule="evenodd" d="M12.1764 89.4073C11.5453 88.6708 11.5804 87.5721 12.2465 86.9642C12.9243 86.3681 14.0112 86.4031 14.689 87.0577C15.4019 87.7474 15.3902 88.8579 14.6422 89.5242C13.9177 90.1905 12.8075 90.1437 12.1764 89.4073Z" fill="white"/>
</g>
</g>
<g id="Group_318">
<g id="Group_319">
<path id="Vector_148" fill-rule="evenodd" clip-rule="evenodd" d="M4.61683 94.5983C4.18444 93.7567 4.45325 92.7046 5.22454 92.2253C5.99584 91.7577 7.05929 92.0383 7.58517 92.8449C8.11106 93.6514 7.85396 94.7386 7.00085 95.2529C6.14775 95.779 5.0726 95.475 4.61683 94.5983Z" fill="white"/>
</g>
</g>
</g>
</g>
</g>
<g id="Group_320">
<g id="Group_321">
<g id="Group_322">
<g id="Group_323">
<g id="Group_324">
<path id="Vector_149" fill-rule="evenodd" clip-rule="evenodd" d="M5.60835 34.2792C4.98897 34.9923 3.89046 35.1559 3.1659 34.6065C2.44135 34.057 2.27773 32.9582 2.79193 32.1633C3.3295 31.3334 4.4397 31.1697 5.26944 31.7893C6.09917 32.4205 6.2511 33.5194 5.60835 34.2792Z" fill="white"/>
</g>
</g>
<g id="Group_325">
<g id="Group_326">
<path id="Vector_150" fill-rule="evenodd" clip-rule="evenodd" d="M11.8015 41.3043C11.3925 41.5614 10.925 41.6432 10.5043 41.5497C10.0719 41.4679 9.65125 41.2575 9.38247 40.8951C8.83321 40.1703 9.0085 39.0715 9.74474 38.4519C10.481 37.8324 11.5911 37.996 12.2105 38.826C12.5143 39.2352 12.6429 39.7261 12.5611 40.1703C12.4793 40.6262 12.2105 41.0354 11.8015 41.3043Z" fill="white"/>
</g>
</g>
<g id="Group_327">
<g id="Group_328">
<path id="Vector_151" fill-rule="evenodd" clip-rule="evenodd" d="M15.6569 49.8257C14.7103 50.0828 13.8221 49.5568 13.4716 48.7151C13.156 47.8618 13.6352 46.8682 14.5233 46.4941C15.4115 46.12 16.4282 46.5993 16.7905 47.5813C17.1762 48.5515 16.5801 49.5802 15.6569 49.8257Z" fill="white"/>
</g>
</g>
<g id="Group_329">
<g id="Group_330">
<path id="Vector_152" fill-rule="evenodd" clip-rule="evenodd" d="M16.8273 59.1193C15.8573 59.0843 15.1444 58.3244 15.0626 57.4126C15.0159 56.5008 15.7638 55.6942 16.7221 55.6007C17.6804 55.5072 18.5101 56.267 18.5685 57.3074C18.6503 58.3361 17.7855 59.1544 16.8273 59.1193Z" fill="white"/>
</g>
</g>
<g id="Group_331">
<g id="Group_332">
<path id="Vector_153" fill-rule="evenodd" clip-rule="evenodd" d="M15.2261 68.3426C14.3146 68.027 13.8354 67.0801 14.0341 66.1917C14.2561 65.3149 15.2144 64.7538 16.161 64.9526C17.1076 65.1396 17.6685 66.1215 17.4114 67.1151C17.1894 68.1321 16.1376 68.6582 15.2261 68.3426Z" fill="white"/>
</g>
</g>
<g id="Group_333">
<g id="Group_334">
<path id="Vector_154" fill-rule="evenodd" clip-rule="evenodd" d="M10.9487 76.6772C10.154 76.0927 10.0137 75.0756 10.4578 74.2807C10.9253 73.5092 12.0004 73.2521 12.8536 73.7196C13.7067 74.1872 13.9521 75.2861 13.4145 76.1628C12.9003 77.063 11.72 77.2383 10.9487 76.6772Z" fill="white"/>
</g>
</g>
<g id="Group_335">
<g id="Group_336">
<path id="Vector_155" fill-rule="evenodd" clip-rule="evenodd" d="M4.41554 83.3751C3.81953 82.5802 3.98313 81.5632 4.66094 80.9437C5.32707 80.3358 6.42559 80.4059 7.1034 81.0956C7.78122 81.7853 7.71112 82.9192 6.93981 83.6206C6.16851 84.3102 4.97649 84.135 4.41554 83.3751Z" fill="white"/>
</g>
</g>
</g>
</g>
</g>
<g id="Group_337">
<g id="Group_338">
<g id="Group_339">
<g id="Group_340">
<g id="Group_341">
<path id="Vector_156" fill-rule="evenodd" clip-rule="evenodd" d="M3.54036 46.1207C2.734 46.6468 1.65883 46.5299 1.14462 45.8402C0.618734 45.1622 0.677192 44.1334 1.39006 43.4554C2.07956 42.7891 3.24819 42.8359 3.89094 43.6542C4.51032 44.4842 4.35841 45.5947 3.54036 46.1207Z" fill="white"/>
</g>
</g>
<g id="Group_342">
<g id="Group_343">
<path id="Vector_157" fill-rule="evenodd" clip-rule="evenodd" d="M6.94106 54.549C6.46191 54.6308 6.00612 54.5257 5.64384 54.2919C5.26988 54.0698 4.97771 53.7307 4.87253 53.3099C4.68555 52.4683 5.17638 51.5565 6.07624 51.2292C6.98778 50.9019 8.03959 51.4162 8.26163 52.4332C8.39018 52.9358 8.32006 53.4269 8.07464 53.8009C7.81754 54.1984 7.4202 54.4672 6.94106 54.549Z" fill="white"/>
</g>
</g>
<g id="Group_344">
<g id="Group_345">
<path id="Vector_158" fill-rule="evenodd" clip-rule="evenodd" d="M6.63653 63.62C5.68995 63.3746 5.15238 62.5096 5.24587 61.6562C5.38611 60.8146 6.26258 60.1717 7.19748 60.2418C8.17911 60.3119 8.88026 61.2003 8.70496 62.229C8.5881 63.2577 7.54805 63.8655 6.63653 63.62Z" fill="white"/>
</g>
</g>
<g id="Group_346">
<g id="Group_347">
<path id="Vector_159" fill-rule="evenodd" clip-rule="evenodd" d="M2.66463 71.7912C1.90501 71.1833 1.7297 70.143 2.20884 69.4416C2.65292 68.7052 3.70471 68.483 4.55782 68.9389C5.41093 69.3948 5.66802 70.4819 5.13044 71.3704C4.55781 72.2237 3.41256 72.3873 2.66463 71.7912Z" fill="white"/>
</g>
</g>
</g>
</g>
</g>
</g>
</svg>
